{"title":"Captain America The Winter Soldier 2014 720p HDCAM V2 x264 Pimp4","uid":9903399,"size":2151931015,"categoryP":"video","categoryS":"movies","magnet":"?xt=urn:btih:99f0268a634e954d0fc2e3d30980c18741067048&amp;dn=Captain+America+The+Winter+Soldier+2014+720p+HDCAM+V2+x264+Pimp4&amp;tr=udp%3A%2F%2Ftracker.openbittorrent.com%3A80&amp;tr=udp%3A%2F%2Fopen.demonii.com%3A1337&amp;tr=udp%3A%2F%2Ftracker.coppersurfer.tk%3A6969&amp;tr=udp%3A%2F%2Fexodus.desync.com%3A6969","seeders":9,"leechers":0,"uploader":"shawnmurthy","files":-1,"time":1396807232,"description":" &lt;a href=&quot;http://istoreimg.com/upload/small/2014/03/31/5338b4c61e548.jpg&quot; rel=&quot;nofollow&quot; target=&quot;_NEW&quot;&gt;http://istoreimg.com/upload/small/2014/03/31/5338b4c61e548.jpg&lt;/a&gt;\n\n[b]THE SOURCE IS EVIL-DEAD...SO THIS IS FULL MOVIE WITH THE BEGINNING AND VIDEO AND AUDIO IS PRETTY GOOD...HAD TO DO SOME TOUCHES HERE AND THERE BUT OTHER THEN THAT IT SHOULD BE GOOD....UNTIL NEW SHOURCE...ENJOY [/b]\n\nSCREEN SHOTS\n &lt;a href=&quot;\nhttp://pimp4003.net/torrents.php?id=99f0268a634e954d0fc2e3d30980c18741067048&quot; rel=&quot;nofollow&quot; target=&quot;_NEW&quot;&gt;\nhttp://pimp4003.net/torrents.php?id=99f0268a634e954d0fc2e3d30980c18741067048&lt;/a&gt;\n\nCaptain America The Winter Soldier 2014 720p HDCAM V2 x264 Pimp4003\n &lt;a href=&quot;\nhttp://www.imdb.com/title/tt1843866/&quot; rel=&quot;nofollow&quot; target=&quot;_NEW&quot;&gt;\nhttp://www.imdb.com/title/tt1843866/&lt;/a&gt;\n\nSteve Rogers struggles to embrace his role in the modern world and battles a new threat from old history: the Soviet agent known as the Winter Soldier.\n\nDirectors: Anthony Russo, Joe Russo, 1 more credit Â»\nWriters: Christopher Markus (screenplay), Stephen McFeely (screenplay), 3 more credits Â»\nStars: Chris Evans, Frank Grillo, Sebastian Stan | See full cast and crew Â»\n\nVideo\nID                                       : 1\nFormat                                   : AVC\nFormat/Info                              : Advanced Video Codec\nFormat profile                           : &lt;a class=&quot;__cf_email__&quot; href=&quot;/cdn-cgi/l/email-protection&quot; data-cfemail=&quot;4800212f2008047b6679&quot;&gt;[email&amp;#160;protected]&lt;/a&gt;&lt;script cf-hash='f9e31' type=&quot;text/javascript&quot;&gt;\n/* &lt;![CDATA[ */!function(){try{var t=&quot;currentScript&quot;in document?document.currentScript:function(){for(var t=document.getElementsByTagName(&quot;script&quot;),e=t.length;e--;)if(t[e].getAttribute(&quot;cf-hash&quot;))return t[e]}();if(t&amp;&amp;t.previousSibling){var e,r,n,i,c=t.previousSibling,a=c.getAttribute(&quot;data-cfemail&quot;);if(a){for(e=&quot;&quot;,r=parseInt(a.substr(0,2),16),n=2;a.length-n;n+=2)i=parseInt(a.substr(n,2),16)^r,e+=String.fromCharCode(i);e=document.createTextNode(e),c.parentNode.replaceChild(e,c)}}}catch(u){}}();/* ]]&gt; */&lt;/script&gt;\nFormat settings, CABAC                   : Yes\nFormat settings, ReFrames                : 5 frames\nFormat settings, GOP                     : M=4, N=13\nCodec ID                                 : avc1\nCodec ID/Info                            : Advanced Video Coding\nDuration                                 : 2h 3mn\nBit rate                                 : 2 144 Kbps\nWidth                                    : 1 280 pixels\nHeight                                   : 544 pixels\nDisplay aspect ratio                     : 2.35:1\nFrame rate mode                          : Constant\nFrame rate                               : 29.970 fps\nColor space                              : YUV\nChroma subsampling                       : 4:2:0\nBit depth                                : 8 bits\nScan type                                : Progressive\nBits/(Pixel*Frame)                       : 0.103\nStream size                              : 1.85 GiB (93%)\nWriting library                          : x264 core 110\nEncoding settings                        : cabac=1 / ref=5 / deblock=1:0:0 / analyse=0x3:0x133 / me=hex / subme=8 / psy=1 / psy_rd=1.00:0.00 / mixed_ref=1 / me_range=16 / chroma_me=0 / trellis=1 / 8x8dct=1 / cqm=0 / deadzone=21,11 / fast_pskip=1 / chroma_qp_offset=-2 / threads=8 / sliced_threads=0 / nr=0 / decimate=1 / interlaced=0 / constrained_intra=0 / bframes=3 / b_pyramid=0 / b_adapt=0 / b_bias=0 / direct=3 / weightb=1 / open_gop=0 / weightp=0 / keyint=13 / keyint_min=7 / scenecut=0 / intra_refresh=0 / rc_lookahead=13 / rc=abr / mbtree=1 / bitrate=2144 / ratetol=1.0 / qcomp=0.00 / qpmin=10 / qpmax=51 / qpstep=4 / ip_ratio=1.41 / aq=1:1.00\n\nAudio\nID                                       : 2\nFormat                                   : AAC\nFormat/Info                              : Advanced Audio Codec\nFormat profile                           : LC\nCodec ID                                 : 40\nDuration                                 : 2h 3mn\nBit rate mode                            : Variable\nBit rate                                 : 165 Kbps\nChannel(s)                               : 2 channels\nChannel positions                        : Front: L R\nSampling rate                            : 48.0 KHz\nCompression mode                         : Lossy\nStream size                              : 146 MiB (7%)\n","torrent":{"xt":"urn:btih:99f0268a634e954d0fc2e3d30980c18741067048","amp;dn":"Captain+America+The+Winter+Soldier+2014+720p+HDCAM+V2+x264+Pimp4","amp;tr":["udp%3A%2F%2Ftracker.openbittorrent.com%3A80","udp%3A%2F%2Fopen.demonii.com%3A1337","udp%3A%2F%2Ftracker.coppersurfer.tk%3A6969","udp%3A%2F%2Fexodus.desync.com%3A6969"],"infoHash":"99f0268a634e954d0fc2e3d30980c18741067048","infoHashBuffer":{"type":"Buffer","data":[153,240,38,138,99,78,149,77,15,194,227,211,9,128,193,135,65,6,112,72]},"announce":[],"urlList":[]}}